<svg version="1.1" xmlns="http://www.w3.org/2000/svg" style="fill: #898989;" xmlns:xlink="http://www.w3.org/1999/xlink" x="0px"
                    y="0px" viewBox="0 0 512 512" xml:space="preserve">
                    <g> 
                        <g>
                            <polygon points="126.533,102.4 199.111,102.4 199.111,68.267 68.267,68.267 68.267,199.111 102.4,199.111 102.4,126.538
   198.422,222.558 222.556,198.423"></polygon>
                        </g>
                    </g>
                    <g>
                        <g>
                            <polygon points="222.557,313.581 198.422,289.445 102.4,385.467 102.4,312.889 68.267,312.889 68.267,443.733 199.111,443.733
   199.111,409.6 126.538,409.6 		"></polygon>
                        </g>
                    </g>
                    <g>
                        <g>
                            <polygon points="409.6,312.889 409.6,385.467 313.578,289.444 289.444,313.578 385.462,409.6 312.889,409.6 312.889,443.733
   443.733,443.733 443.733,312.889 		"></polygon>
                        </g>
                    </g>
                    <g>
                        <g>
                            <polygon points="312.889,68.267 312.889,102.4 385.467,102.4 289.444,198.423 313.578,222.558 409.6,126.538 409.6,199.111
   443.733,199.111 443.733,68.267 		"></polygon>
                        </g>
                    </g>
                    <g>
                    </g>
                    <g>
                    </g>
                    <g>
                    </g>
                    <g>
                    </g>
                    <g>
                    </g>
                    <g>
                    </g>
                    <g>
                    </g>
                    <g>
                    </g>
                    <g>
                    </g>
                    <g>
                    </g>
                    <g>
                    </g>
                    <g>
                    </g>
                    <g>
                    </g>
                    <g>
                    </g>
                    <g>
                    </g>
                </svg>